<svg xmlns="http://www.w3.org/2000/svg" width="860" height="364" viewBox="0 0 860 364"><rect x=".5" y=".5" width="859" height="363" rx="12" fill="#12141C" stroke="#232736"/><text x="22" y="31.0" font-family="system-ui, -apple-system, 'Segoe UI', Roboto, sans-serif" font-size="14" font-weight="700" fill="#F2B15C">Languages</text><rect x="190" y="14" width="62.0" height="26" rx="8" fill="#181B26" stroke="#232736"/><text x="221.0" y="31.5" text-anchor="middle" font-family="system-ui, -apple-system, 'Segoe UI', Roboto, sans-serif" font-size="12.5" fill="#E8E6E1">Python</text><rect x="260" y="14" width="41.0" height="26" rx="8" fill="#181B26" stroke="#232736"/><text x="280.5" y="31.5" text-anchor="middle" font-family="system-ui, -apple-system, 'Segoe UI', Roboto, sans-serif" font-size="12.5" fill="#E8E6E1">C++</text><rect x="309" y="14" width="27.0" height="26" rx="8" fill="#181B26" stroke="#232736"/><text x="322.5" y="31.5" text-anchor="middle" font-family="system-ui, -apple-system, 'Segoe UI', Roboto, sans-serif" font-size="12.5" fill="#E8E6E1">C</text><rect x="344" y="14" width="48.0" height="26" rx="8" fill="#181B26" stroke="#232736"/><text x="368.0" y="31.5" text-anchor="middle" font-family="system-ui, -apple-system, 'Segoe UI', Roboto, sans-serif" font-size="12.5" fill="#E8E6E1">Java</text><rect x="400" y="14" width="41.0" height="26" rx="8" fill="#181B26" stroke="#232736"/><text x="420.5" y="31.5" text-anchor="middle" font-family="system-ui, -apple-system, 'Segoe UI', Roboto, sans-serif" font-size="12.5" fill="#E8E6E1">SQL</text><path d="M0 52H860" stroke="#232736"/><text x="22" y="83.0" font-family="system-ui, -apple-system, 'Segoe UI', Roboto, sans-serif" font-size="14" font-weight="700" fill="#F2B15C">Machine Learning</text><rect x="190" y="66" width="146.0" height="26" rx="8" fill="#181B26" stroke="#232736"/><text x="263.0" y="83.5" text-anchor="middle" font-family="system-ui, -apple-system, 'Segoe UI', Roboto, sans-serif" font-size="12.5" fill="#E8E6E1">Data Preprocessing</text><rect x="344" y="66" width="41.0" height="26" rx="8" fill="#181B26" stroke="#232736"/><text x="364.5" y="83.5" text-anchor="middle" font-family="system-ui, -apple-system, 'Segoe UI', Roboto, sans-serif" font-size="12.5" fill="#E8E6E1">EDA</text><rect x="393" y="66" width="111.0" height="26" rx="8" fill="#181B26" stroke="#232736"/><text x="448.5" y="83.5" text-anchor="middle" font-family="system-ui, -apple-system, 'Segoe UI', Roboto, sans-serif" font-size="12.5" fill="#E8E6E1">ML Algorithms</text><rect x="512" y="66" width="209.0" height="26" rx="8" fill="#181B26" stroke="#232736"/><text x="616.5" y="83.5" text-anchor="middle" font-family="system-ui, -apple-system, 'Segoe UI', Roboto, sans-serif" font-size="12.5" fill="#E8E6E1">Model Training &amp; Evaluation</text><path d="M0 104H860" stroke="#232736"/><text x="22" y="135.0" font-family="system-ui, -apple-system, 'Segoe UI', Roboto, sans-serif" font-size="14" font-weight="700" fill="#F2B15C">Deep Learning</text><rect x="190" y="118" width="125.0" height="26" rx="8" fill="#181B26" stroke="#232736"/><text x="252.5" y="135.5" text-anchor="middle" font-family="system-ui, -apple-system, 'Segoe UI', Roboto, sans-serif" font-size="12.5" fill="#E8E6E1">Neural Networks</text><rect x="323" y="118" width="48.0" height="26" rx="8" fill="#181B26" stroke="#232736"/><text x="347.0" y="135.5" text-anchor="middle" font-family="system-ui, -apple-system, 'Segoe UI', Roboto, sans-serif" font-size="12.5" fill="#E8E6E1">CNNs</text><rect x="379" y="118" width="48.0" height="26" rx="8" fill="#181B26" stroke="#232736"/><text x="403.0" y="135.5" text-anchor="middle" font-family="system-ui, -apple-system, 'Segoe UI', Roboto, sans-serif" font-size="12.5" fill="#E8E6E1">RNNs</text><rect x="435" y="118" width="55.0" height="26" rx="8" fill="#181B26" stroke="#232736"/><text x="462.5" y="135.5" text-anchor="middle" font-family="system-ui, -apple-system, 'Segoe UI', Roboto, sans-serif" font-size="12.5" fill="#E8E6E1">LSTMs</text><rect x="498" y="118" width="139.0" height="26" rx="8" fill="#181B26" stroke="#232736"/><text x="567.5" y="135.5" text-anchor="middle" font-family="system-ui, -apple-system, 'Segoe UI', Roboto, sans-serif" font-size="12.5" fill="#E8E6E1">Transfer Learning</text><rect x="645" y="118" width="90.0" height="26" rx="8" fill="#181B26" stroke="#232736"/><text x="690.0" y="135.5" text-anchor="middle" font-family="system-ui, -apple-system, 'Segoe UI', Roboto, sans-serif" font-size="12.5" fill="#E8E6E1">TensorFlow</text><rect x="743" y="118" width="69.0" height="26" rx="8" fill="#181B26" stroke="#232736"/><text x="777.5" y="135.5" text-anchor="middle" font-family="system-ui, -apple-system, 'Segoe UI', Roboto, sans-serif" font-size="12.5" fill="#E8E6E1">PyTorch</text><path d="M0 156H860" stroke="#232736"/><text x="22" y="187.0" font-family="system-ui, -apple-system, 'Segoe UI', Roboto, sans-serif" font-size="14" font-weight="700" fill="#F2B15C">NLP</text><rect x="190" y="170" width="146.0" height="26" rx="8" fill="#181B26" stroke="#232736"/><text x="263.0" y="187.5" text-anchor="middle" font-family="system-ui, -apple-system, 'Segoe UI', Roboto, sans-serif" font-size="12.5" fill="#E8E6E1">Text Preprocessing</text><rect x="344" y="170" width="146.0" height="26" rx="8" fill="#181B26" stroke="#232736"/><text x="417.0" y="187.5" text-anchor="middle" font-family="system-ui, -apple-system, 'Segoe UI', Roboto, sans-serif" font-size="12.5" fill="#E8E6E1">Sentiment Analysis</text><rect x="498" y="170" width="41.0" height="26" rx="8" fill="#181B26" stroke="#232736"/><text x="518.5" y="187.5" text-anchor="middle" font-family="system-ui, -apple-system, 'Segoe UI', Roboto, sans-serif" font-size="12.5" fill="#E8E6E1">NER</text><rect x="547" y="170" width="76.0" height="26" rx="8" fill="#181B26" stroke="#232736"/><text x="585.0" y="187.5" text-anchor="middle" font-family="system-ui, -apple-system, 'Segoe UI', Roboto, sans-serif" font-size="12.5" fill="#E8E6E1">Word2Vec</text><rect x="631" y="170" width="55.0" height="26" rx="8" fill="#181B26" stroke="#232736"/><text x="658.5" y="187.5" text-anchor="middle" font-family="system-ui, -apple-system, 'Segoe UI', Roboto, sans-serif" font-size="12.5" fill="#E8E6E1">GloVe</text><rect x="694" y="170" width="104.0" height="26" rx="8" fill="#181B26" stroke="#232736"/><text x="746.0" y="187.5" text-anchor="middle" font-family="system-ui, -apple-system, 'Segoe UI', Roboto, sans-serif" font-size="12.5" fill="#E8E6E1">Transformers</text><path d="M0 208H860" stroke="#232736"/><text x="22" y="239.0" font-family="system-ui, -apple-system, 'Segoe UI', Roboto, sans-serif" font-size="14" font-weight="700" fill="#F2B15C">Generative AI</text><rect x="190" y="222" width="48.0" height="26" rx="8" fill="#181B26" stroke="#232736"/><text x="214.0" y="239.5" text-anchor="middle" font-family="system-ui, -apple-system, 'Segoe UI', Roboto, sans-serif" font-size="12.5" fill="#E8E6E1">LLMs</text><rect x="246" y="222" width="41.0" height="26" rx="8" fill="#181B26" stroke="#232736"/><text x="266.5" y="239.5" text-anchor="middle" font-family="system-ui, -apple-system, 'Segoe UI', Roboto, sans-serif" font-size="12.5" fill="#E8E6E1">RAG</text><rect x="295" y="222" width="146.0" height="26" rx="8" fill="#181B26" stroke="#232736"/><text x="368.0" y="239.5" text-anchor="middle" font-family="system-ui, -apple-system, 'Segoe UI', Roboto, sans-serif" font-size="12.5" fill="#E8E6E1">Prompt Engineering</text><rect x="449" y="222" width="83.0" height="26" rx="8" fill="#181B26" stroke="#232736"/><text x="490.5" y="239.5" text-anchor="middle" font-family="system-ui, -apple-system, 'Segoe UI', Roboto, sans-serif" font-size="12.5" fill="#E8E6E1">AI Agents</text><rect x="540" y="222" width="83.0" height="26" rx="8" fill="#181B26" stroke="#232736"/><text x="581.5" y="239.5" text-anchor="middle" font-family="system-ui, -apple-system, 'Segoe UI', Roboto, sans-serif" font-size="12.5" fill="#E8E6E1">LangChain</text><rect x="631" y="222" width="104.0" height="26" rx="8" fill="#181B26" stroke="#232736"/><text x="683.0" y="239.5" text-anchor="middle" font-family="system-ui, -apple-system, 'Segoe UI', Roboto, sans-serif" font-size="12.5" fill="#E8E6E1">Hugging Face</text><rect x="743" y="222" width="76.0" height="26" rx="8" fill="#181B26" stroke="#232736"/><text x="781.0" y="239.5" text-anchor="middle" font-family="system-ui, -apple-system, 'Segoe UI', Roboto, sans-serif" font-size="12.5" fill="#E8E6E1">ChromaDB</text><path d="M0 260H860" stroke="#232736"/><text x="22" y="291.0" font-family="system-ui, -apple-system, 'Segoe UI', Roboto, sans-serif" font-size="14" font-weight="700" fill="#F2B15C">Web</text><rect x="190" y="274" width="48.0" height="26" rx="8" fill="#181B26" stroke="#232736"/><text x="214.0" y="291.5" text-anchor="middle" font-family="system-ui, -apple-system, 'Segoe UI', Roboto, sans-serif" font-size="12.5" fill="#E8E6E1">HTML</text><rect x="246" y="274" width="41.0" height="26" rx="8" fill="#181B26" stroke="#232736"/><text x="266.5" y="291.5" text-anchor="middle" font-family="system-ui, -apple-system, 'Segoe UI', Roboto, sans-serif" font-size="12.5" fill="#E8E6E1">CSS</text><rect x="295" y="274" width="90.0" height="26" rx="8" fill="#181B26" stroke="#232736"/><text x="340.0" y="291.5" text-anchor="middle" font-family="system-ui, -apple-system, 'Segoe UI', Roboto, sans-serif" font-size="12.5" fill="#E8E6E1">JavaScript</text><rect x="393" y="274" width="83.0" height="26" rx="8" fill="#181B26" stroke="#232736"/><text x="434.5" y="291.5" text-anchor="middle" font-family="system-ui, -apple-system, 'Segoe UI', Roboto, sans-serif" font-size="12.5" fill="#E8E6E1">Streamlit</text><rect x="484" y="274" width="55.0" height="26" rx="8" fill="#181B26" stroke="#232736"/><text x="511.5" y="291.5" text-anchor="middle" font-family="system-ui, -apple-system, 'Segoe UI', Roboto, sans-serif" font-size="12.5" fill="#E8E6E1">Flask</text><path d="M0 312H860" stroke="#232736"/><text x="22" y="343.0" font-family="system-ui, -apple-system, 'Segoe UI', Roboto, sans-serif" font-size="14" font-weight="700" fill="#F2B15C">Tools</text><rect x="190" y="326" width="41.0" height="26" rx="8" fill="#181B26" stroke="#232736"/><text x="210.5" y="343.5" text-anchor="middle" font-family="system-ui, -apple-system, 'Segoe UI', Roboto, sans-serif" font-size="12.5" fill="#E8E6E1">Git</text><rect x="239" y="326" width="62.0" height="26" rx="8" fill="#181B26" stroke="#232736"/><text x="270.0" y="343.5" text-anchor="middle" font-family="system-ui, -apple-system, 'Segoe UI', Roboto, sans-serif" font-size="12.5" fill="#E8E6E1">GitHub</text><rect x="309" y="326" width="69.0" height="26" rx="8" fill="#181B26" stroke="#232736"/><text x="343.5" y="343.5" text-anchor="middle" font-family="system-ui, -apple-system, 'Segoe UI', Roboto, sans-serif" font-size="12.5" fill="#E8E6E1">VS Code</text><rect x="386" y="326" width="132.0" height="26" rx="8" fill="#181B26" stroke="#232736"/><text x="452.0" y="343.5" text-anchor="middle" font-family="system-ui, -apple-system, 'Segoe UI', Roboto, sans-serif" font-size="12.5" fill="#E8E6E1">Jupyter Notebook</text><rect x="526" y="326" width="104.0" height="26" rx="8" fill="#181B26" stroke="#232736"/><text x="578.0" y="343.5" text-anchor="middle" font-family="system-ui, -apple-system, 'Segoe UI', Roboto, sans-serif" font-size="12.5" fill="#E8E6E1">Google Colab</text><rect x="638" y="326" width="48.0" height="26" rx="8" fill="#181B26" stroke="#232736"/><text x="662.0" y="343.5" text-anchor="middle" font-family="system-ui, -apple-system, 'Segoe UI', Roboto, sans-serif" font-size="12.5" fill="#E8E6E1">IDLE</text><path d="M0 364H860" stroke="#232736"/></svg>